<?xml version="1.0" encoding="utf-8"?>
<!-- Generator: Adobe Illustrator 18.0.0, SVG Export Plug-In . SVG Version: 6.00 Build 0)  -->
<!DOCTYPE svg PUBLIC "-//W3C//DTD SVG 1.1//EN" "http://www.w3.org/Graphics/SVG/1.1/DTD/svg11.dtd">
<svg version="1.1" id="logo_x5F_v8_x5F_192px_x5F_clr"
	 xmlns="http://www.w3.org/2000/svg" xmlns:xlink="http://www.w3.org/1999/xlink" x="0px" y="0px" width="192px" height="192px"
	 viewBox="0 0 192 192" enable-background="new 0 0 192 192" xml:space="preserve">
<g>
	<rect x="0" y="0" fill="none" width="192" height="192"/>
	<g>
		<defs>
			<path id="SVGID_4_" d="M184,32l-16,28l-4.55,8h-10.79l-13.79,26.05c0.74,3.2,1.13,6.53,1.13,9.95
				c0,18.64-11.59,34.56-27.95,40.98c-0.49,0.19-0.99,0.38-1.49,0.55L96,172l-14.55-26.47c-0.5-0.17-0.99-0.35-1.48-0.54
				C63.59,138.58,52,122.64,52,104c0-3.43,0.39-6.77,1.13-9.97L39.42,68h-10.8L24,60L8,32h46.01l7.49,14.87v0.01l0.38,0.24
				c0-0.08,0.14-0.17,0.15-0.25C63.6,29.56,78.21,16,95.94,16s32.32,13.57,33.88,30.89c0.01,0.08-0.21,0.17-0.21,0.25l-0.1-0.24
				v-0.01L138,32H184z"/>
		</defs>
		<clipPath id="SVGID_1_">
			<use xlink:href="#SVGID_4_"  overflow="visible"/>
		</clipPath>
		<g clip-path="url(#SVGID_1_)">
			<path fill="#9E9E9E" d="M155.47,59l-4.28,9h12.27l0.58-1.02l4.53-7.98H155.47z M36.31,59H23.44l5.18,9h12.02L36.31,59z"/>
			<polygon fill="#424242" points="184,32 168,60 156.8,60 138.87,94.05 96,172 53.13,94.03 35.21,60 24,60 8,32 54.01,32
				61.5,46.87 61.5,46.88 85.89,91.37 95.87,109.65 105.51,91.37 129.5,46.9 129.5,46.89 138,32 			"/>
			<g>
				<path fill="#FFFFFF" fill-opacity="0.2" d="M54.56,33H8.57L8,32h46.01L54.56,33z M138,32l-0.55,1h45.98l0.57-1H138z"/>
				<polygon fill="#263238" fill-opacity="0.2" points="164.04,66.98 163.46,68 152.6,68 138.87,94.05 96,172 53.13,94.03 39.43,68
					28.56,68 27.99,67 39.43,67 39.96,68 53.13,93.03 96,171 138.87,93.05 152.07,68 152.61,66.98 				"/>
			</g>
		</g>
		<g clip-path="url(#SVGID_1_)">
			<g>
				<path fill="#FFFFFF" d="M113,104c0,9.39-7.61,17-17,17c-9.37,0-17-7.61-17-17c0-9.39,7.63-17,17-17C105.39,87,113,94.61,113,104
					z"/>
			</g>
			<g>
				<path fill="#FFFFFF" d="M111,52c0,8.28-6.72,15-15,15c-8.27,0-15-6.72-15-15c0-8.28,6.73-15,15-15C104.28,37,111,43.72,111,52z"
					/>
			</g>
			<path fill="#4285F4" d="M138.87,94.05c-2.25-9.72-7.71-18.2-15.21-24.27C127.65,64.21,130,57.38,130,50
				c0-1.05-0.05-2.08-0.15-3.11C128.29,29.57,113.73,16,96,16S63.72,29.56,62.15,46.87C62.05,47.9,62,48.95,62,50
				c0,7.38,2.35,14.21,6.34,19.78c-7.5,6.07-12.96,14.54-15.21,24.25C52.39,97.23,52,100.57,52,104c0,18.64,11.59,34.58,27.97,40.99
				C84.93,146.93,90.34,148,96,148s11.08-1.07,16.05-3.02C128.41,138.56,140,122.64,140,104C140,100.58,139.61,97.25,138.87,94.05z
				 M96,38c7.73,0,14,6.27,14,14c0,7.73-6.27,14-14,14c-7.72,0-14-6.27-14-14C82,44.27,88.28,38,96,38z M96,120
				c-8.82,0-16-7.16-16-16c0-5.13,2.42-9.7,6.18-12.63C88.89,89.26,92.3,88,96,88c3.71,0,7.12,1.26,9.83,3.37
				c3.76,2.93,6.17,7.5,6.17,12.63C112,112.84,104.84,120,96,120z"/>
			<g>
				<path fill="#FFFFFF" fill-opacity="0.2" d="M130,50c0,0.17,0,0.33-0.01,0.5C129.73,31.95,114.61,17,96,17
					S62.27,31.95,62.01,50.5C62,50.33,62,50.17,62,50c0-18.78,15.22-34,34-34S130,31.22,130,50z M67.9,70.15
					C58.19,78.21,52,90.38,52,104v0.5c0.15-13.62,6.49-25.75,16.34-33.72c0.15-0.12,0.3-0.25,0.46-0.37
					c-0.16-0.21-0.31-0.42-0.46-0.63C68.19,69.9,68.05,70.02,67.9,70.15z M124.1,70.15c-0.15-0.13-0.29-0.25-0.44-0.37
					c-0.15,0.21-0.3,0.42-0.46,0.63c0.16,0.12,0.31,0.25,0.46,0.37c9.85,7.97,16.19,20.1,16.34,33.72V104
					C140,90.38,133.81,78.21,124.1,70.15z"/>
				<path fill="#263238" fill-opacity="0.2" d="M140,103.5v0.5c0,24.3-19.7,44-44,44s-44-19.7-44-44v-0.5
					c0.27,24.07,19.87,43.5,44,43.5S139.73,127.57,140,103.5z M62.01,49.5C62,49.67,62,49.83,62,50c0,7.66,2.53,14.73,6.8,20.41
					c0.16-0.12,0.32-0.25,0.49-0.37C64.82,64.37,62.12,57.25,62.01,49.5z M129.99,49.5c-0.11,7.75-2.81,14.87-7.28,20.54
					c0.17,0.12,0.33,0.25,0.49,0.37c4.27-5.68,6.8-12.75,6.8-20.41C130,49.83,130,49.67,129.99,49.5z"/>
			</g>
		</g>
	</g>
	<radialGradient id="SVGID_2_" cx="10.2502" cy="33.7501" r="185.4395" gradientUnits="userSpaceOnUse">
		<stop  offset="0" style="stop-color:#FFFFFF;stop-opacity:0.1"/>
		<stop  offset="1" style="stop-color:#FFFFFF;stop-opacity:0"/>
	</radialGradient>
	<path fill="url(#SVGID_2_)" d="M184,32l-16,28l-4.55,8H152.6l-13.73,26.05c0.74,3.2,1.13,6.53,1.13,9.95
		c0,18.64-11.59,34.56-27.95,40.98c-0.49,0.19-0.99,0.38-1.49,0.55L96,172l-14.55-26.47c-0.5-0.17-0.99-0.35-1.48-0.54
		C63.59,138.58,52,122.64,52,104c0-3.43,0.39-6.77,1.13-9.97L39.42,68h-10.8L24,60L8,32h46.01l7.49,14.87v0.01l0.38,0.24
		c0-0.08,0.14-0.17,0.15-0.25C63.6,29.56,78.21,16,95.94,16s32.32,13.57,33.88,30.89c0.01,0.08-0.21,0.17-0.21,0.25l-0.1-0.24v-0.01
		L138,32H184z"/>
</g>
</svg>
