<?xml version="1.0" encoding="UTF-8"?>
<svg version="1.1" viewBox="0 0 138.86 190.71" xmlns="http://www.w3.org/2000/svg">
 <g transform="translate(-662 -482.72)">
  <g transform="translate(720.73 455.18)">
   <path transform="matrix(.47131 0 0 1.0459 -144.24 -439.39)" d="m475.71 602.72c0 14.399-65.878 26.071-147.14 26.071-81.265 0-147.14-11.673-147.14-26.071s65.878-26.071 147.14-26.071c81.265 0 147.14 11.673 147.14 26.071z" fill="#d40000"/>
   <path d="m-58.577 145.9v0.29457c6e-3 -0.0975 0.0206-0.19729 0.0295-0.29457h-0.0295zm138.62 0c0.0302 0.33044 0.0589 0.66821 0.0589 1.0015v-1.0015h-0.0589zm0.0589 1.0015c-1e-5 15.052-31.075 27.262-69.356 27.262-37.683 1e-5 -68.377-11.828-69.326-26.555v40.68c-0.0151 0.23376-0.0147 0.45704-0.0147 0.69223 0 0.22546 8.7e-4 0.45335 0.0147 0.67751 0.91151 14.741 31.619 26.599 69.326 26.599 37.708 0 68.415-11.858 69.326-26.599h0.0295v-0.50077c9.5e-4 -0.0587 0-0.11794 0-0.17674s9.4e-4 -0.11803 0-0.17674v-41.902z" fill="#f55"/>
   <path transform="matrix(.47131 0 0 1.0459 -144.08 -483.32)" d="m475.71 602.72c0 14.399-65.878 26.071-147.14 26.071-81.265 0-147.14-11.673-147.14-26.071s65.878-26.071 147.14-26.071c81.265 0 147.14 11.673 147.14 26.071z" fill="#ff2a2a"/>
   <path transform="matrix(.46281 0 0 1.0271 -140.93 -473.87)" d="m475.71 602.72c0 14.399-65.878 26.071-147.14 26.071-81.265 0-147.14-11.673-147.14-26.071s65.878-26.071 147.14-26.071c81.265 0 147.14 11.673 147.14 26.071z" fill="#ff8080"/>
  </g>
  <g transform="translate(720.73 409.74)">
   <path transform="matrix(.47131 0 0 1.0459 -144.24 -439.39)" d="m475.71 602.72c0 14.399-65.878 26.071-147.14 26.071-81.265 0-147.14-11.673-147.14-26.071s65.878-26.071 147.14-26.071c81.265 0 147.14 11.673 147.14 26.071z" fill="#d40000"/>
   <path d="m-58.577 145.9v0.29457c6e-3 -0.0975 0.0206-0.19729 0.0295-0.29457h-0.0295zm138.62 0c0.0302 0.33044 0.0589 0.66821 0.0589 1.0015v-1.0015h-0.0589zm0.0589 1.0015c-1e-5 15.052-31.075 27.262-69.356 27.262-37.683 1e-5 -68.377-11.828-69.326-26.555v40.68c-0.0151 0.23376-0.0147 0.45704-0.0147 0.69223 0 0.22546 8.7e-4 0.45335 0.0147 0.67751 0.91151 14.741 31.619 26.599 69.326 26.599 37.708 0 68.415-11.858 69.326-26.599h0.0295v-0.50077c9.5e-4 -0.0587 0-0.11794 0-0.17674s9.4e-4 -0.11803 0-0.17674v-41.902z" fill="#f55"/>
   <path transform="matrix(.47131 0 0 1.0459 -144.08 -483.32)" d="m475.71 602.72c0 14.399-65.878 26.071-147.14 26.071-81.265 0-147.14-11.673-147.14-26.071s65.878-26.071 147.14-26.071c81.265 0 147.14 11.673 147.14 26.071z" fill="#ff2a2a"/>
   <path transform="matrix(.46281 0 0 1.0271 -140.93 -473.87)" d="m475.71 602.72c0 14.399-65.878 26.071-147.14 26.071-81.265 0-147.14-11.673-147.14-26.071s65.878-26.071 147.14-26.071c81.265 0 147.14 11.673 147.14 26.071z" fill="#ff8080"/>
  </g>
  <g transform="translate(720.73 364.31)">
   <path transform="matrix(.47131 0 0 1.0459 -144.24 -439.39)" d="m475.71 602.72c0 14.399-65.878 26.071-147.14 26.071-81.265 0-147.14-11.673-147.14-26.071s65.878-26.071 147.14-26.071c81.265 0 147.14 11.673 147.14 26.071z" fill="#d40000"/>
   <path d="m-58.577 145.9v0.29457c6e-3 -0.0975 0.0206-0.19729 0.0295-0.29457h-0.0295zm138.62 0c0.0302 0.33044 0.0589 0.66821 0.0589 1.0015v-1.0015h-0.0589zm0.0589 1.0015c-1e-5 15.052-31.075 27.262-69.356 27.262-37.683 1e-5 -68.377-11.828-69.326-26.555v40.68c-0.0151 0.23376-0.0147 0.45704-0.0147 0.69223 0 0.22546 8.7e-4 0.45335 0.0147 0.67751 0.91151 14.741 31.619 26.599 69.326 26.599 37.708 0 68.415-11.858 69.326-26.599h0.0295v-0.50077c9.5e-4 -0.0587 0-0.11794 0-0.17674s9.4e-4 -0.11803 0-0.17674v-41.902z" fill="#f55"/>
   <path transform="matrix(.47131 0 0 1.0459 -144.08 -483.32)" d="m475.71 602.72c0 14.399-65.878 26.071-147.14 26.071-81.265 0-147.14-11.673-147.14-26.071s65.878-26.071 147.14-26.071c81.265 0 147.14 11.673 147.14 26.071z" fill="#ff2a2a"/>
   <path transform="matrix(.46281 0 0 1.0271 -140.93 -473.87)" d="m475.71 602.72c0 14.399-65.878 26.071-147.14 26.071-81.265 0-147.14-11.673-147.14-26.071s65.878-26.071 147.14-26.071c81.265 0 147.14 11.673 147.14 26.071z" fill="#ff8080"/>
  </g>
 </g>
</svg>
