<svg class="card-icon" viewBox="0 0 1280.000000 1280.000000" preserveAspectRatio="xMidYMid meet">
    <g transform="translate(0.000000,1280.000000) scale(0.100000,-0.100000)" fill="#000000" stroke="none">
        <path d="M6150 11689 c-1818 -80 -3441 -1062 -4345 -2629 -492 -852 -739 -1877 -694 -2882 34 -773 202 -1447 529 -2123 557 -1152 1544 -2078 2721 -2554 724 -292 1498 -426 2262 -391 775 36 1449 204 2122 530 1153 557 2078 1544 2555 2724 459 1137 521 2399 174 3573 -318 1082 -985 2040 -1889 2714 -755 562 -1645 909 -2601 1013 -132 15 -547 37 -624 34 -19 0 -114 -5 -210 -9z m-150 -1765 c0 -895 -1 -945 -17 -940 -10 2 -45 7 -78 11 -118 12 -413 67 -574 106 -177 42 -442 117 -453 128 -4 3 19 62 51 131 200 435 477 917 768 1337 98 141 109 153 142 158 20 4 43 8 51 10 8 1 36 3 63 4 l47 1 0 -946z m979 928 c46 -17 397 -555 605 -927 74 -131 289 -559 323 -642 l22 -52 -97 -32 c-282 -90 -678 -174 -999 -212 l-33 -4 0 945 0 945 80 -7 c44 -3 88 -10 99 -14z m-2385 -444 c-93 -158 -314 -591 -390 -765 -27 -62 -54 -113 -61 -113 -29 0 -498 251 -606 325 -17 12 -8 21 85 95 124 98 372 264 523 351 154 88 485 245 522 248 6 1 -26 -63 -73 -141z m3694 77 c321 -141 725 -390 960 -592 l34 -28 -144 -85 c-151 -89 -461 -250 -481 -250 -7 0 -37 55 -66 123 -106 241 -308 631 -430 830 -22 37 -36 67 -31 67 6 0 77 -29 158 -65z m-5171 -1286 c92 -55 301 -167 464 -248 l296 -147 -19 -50 c-75 -194 -226 -728 -294 -1035 -69 -318 -103 -529 -139 -861 l-6 -58 -739 0 -738 0 4 38 c52 499 140 874 299 1277 124 314 243 541 430 820 93 139 262 365 272 365 1 0 78 -45 170 -101z m6805 16 c509 -635 852 -1489 923 -2300 3 -38 8 -80 11 -92 l4 -23 -740 0 c-407 0 -740 2 -740 5 0 3 -7 70 -15 148 -56 506 -200 1135 -392 1706 l-49 145 305 153 c169 84 376 195 461 247 85 52 158 94 161 93 4 -1 36 -38 71 -82z m-5193 -740 c385 -143 849 -258 1214 -300 l57 -6 0 -685 0 -684 -891 0 -891 0 7 78 c35 399 137 897 270 1326 49 157 104 316 110 316 2 0 58 -20 124 -45z m3501 -42 c162 -447 304 -1086 345 -1555 l7 -78 -891 0 -891 0 0 685 c0 541 3 685 13 685 34 1 301 42 414 65 257 52 604 150 839 239 65 25 122 45 126 45 3 1 20 -38 38 -86z m-4806 -2525 c35 -464 168 -1072 362 -1657 46 -140 82 -256 81 -258 -2 -2 -134 -68 -293 -147 -159 -80 -365 -190 -458 -246 l-169 -101 -24 28 c-200 242 -425 596 -560 883 -228 484 -355 957 -417 1553 l-4 37 738 0 737 0 7 -92z m2576 -593 c0 -434 -4 -685 -10 -685 -5 0 -60 -7 -122 -15 -347 -48 -732 -144 -1094 -275 -92 -33 -169 -60 -170 -60 -7 0 -125 375 -168 532 -75 272 -119 476 -161 733 -22 141 -55 398 -55 438 0 16 49 17 890 17 l890 0 0 -685z m2580 668 c0 -35 -31 -290 -51 -413 -40 -258 -113 -583 -190 -850 -36 -125 -139 -440 -143 -440 -2 0 -73 25 -157 56 -379 137 -806 242 -1186 289 l-53 7 0 684 0 684 890 0 c841 0 890 -1 890 -17z m2274 -15 c-2 -18 -11 -96 -20 -173 -72 -640 -300 -1287 -641 -1827 -102 -161 -240 -352 -334 -461 -3 -5 -83 37 -175 93 -93 56 -299 166 -458 246 -159 79 -291 146 -293 148 -2 2 23 84 57 182 196 570 338 1203 382 1692 l11 132 738 0 738 0 -5 -32z m-4854 -3094 l0 -947 -80 7 c-44 3 -90 10 -102 15 -41 16 -295 396 -476 711 -165 287 -424 811 -447 903 -6 23 -1 25 122 60 288 81 526 133 773 167 131 18 181 25 203 29 4 0 7 -425 7 -945z m1010 916 c248 -35 486 -86 773 -167 70 -20 127 -40 127 -46 0 -46 -298 -650 -454 -921 -193 -333 -440 -699 -479 -710 -12 -3 -57 -9 -99 -12 l-78 -7 0 946 0 946 33 -5 c17 -2 97 -13 177 -24z m-2801 -608 c108 -260 268 -582 413 -826 32 -54 57 -100 56 -102 -6 -5 -235 94 -358 155 -69 35 -192 103 -275 152 -221 132 -536 362 -518 380 36 35 605 348 633 348 3 1 25 -48 49 -107z m4609 19 c153 -78 431 -236 455 -260 17 -17 -309 -256 -519 -381 -73 -44 -192 -109 -266 -146 -128 -65 -360 -166 -366 -160 -1 2 24 48 56 102 139 235 310 575 413 826 24 59 45 108 47 108 2 0 83 -40 180 -89z"/>
    </g>
</svg>